<mxfile host="65bd71144e">
    <diagram name="RAG-LLM Pipeline (with Numbered Arrows and Legend)" id="z0vVzGgRz1xF5bGzQ2eL">
        <mxGraphModel dx="1094" dy="2217" grid="1" gridSize="10" guides="1" tooltips="1" connect="1" arrows="1" fold="1" page="1" pageScale="1" pageWidth="827" pageHeight="1169" math="0" shadow="0">
            <root>
                <mxCell id="0"/>
                <mxCell id="1" parent="0"/>
                <mxCell id="2" value="Malware Sample (PE File)" style="shape=rectangle;rounded=1;whiteSpace=wrap;html=1;fillColor=#dae8fc;" parent="1" vertex="1">
                    <mxGeometry x="40" y="80" width="180" height="60" as="geometry"/>
                </mxCell>
                <mxCell id="3" value="Static Feature Extraction" style="shape=process;whiteSpace=wrap;html=1;fillColor=#fff2cc;" parent="1" vertex="1">
                    <mxGeometry x="300" y="80" width="200" height="60" as="geometry"/>
                </mxCell>
                <mxCell id="4" value="Feature Logging" style="shape=process;whiteSpace=wrap;html=1;fillColor=#eeeeee;" parent="1" vertex="1">
                    <mxGeometry x="570" y="80" width="160" height="60" as="geometry"/>
                </mxCell>
                <mxCell id="5" value="Extracted Features" style="shape=rectangle;rounded=1;whiteSpace=wrap;html=1;fillColor=#ffffff;" parent="1" vertex="1">
                    <mxGeometry x="50" y="200" width="160" height="60" as="geometry"/>
                </mxCell>
                <mxCell id="6" value="Vector Store (pgvector)" style="shape=cylinder;whiteSpace=wrap;html=1;fillColor=#e1d5e7;" parent="1" vertex="1">
                    <mxGeometry x="40" y="440" width="180" height="60" as="geometry"/>
                </mxCell>
                <mxCell id="7" value="Document Retriever (Haystack)" style="shape=process;whiteSpace=wrap;html=1;fillColor=#d5e8d4;" parent="1" vertex="1">
                    <mxGeometry x="40" y="320" width="180" height="60" as="geometry"/>
                </mxCell>
                <mxCell id="8" value="Retrieval Logging" style="shape=process;whiteSpace=wrap;html=1;fillColor=#eeeeee;" parent="1" vertex="1">
                    <mxGeometry x="320" y="440" width="160" height="60" as="geometry"/>
                </mxCell>
                <mxCell id="9" value="Threat Docs (MalwareBazaar / VT)" style="shape=rectangle;rounded=1;whiteSpace=wrap;html=1;fillColor=#ffffff;" parent="1" vertex="1">
                    <mxGeometry x="300" y="320" width="200" height="60" as="geometry"/>
                </mxCell>
                <mxCell id="10" value="Prompt Engineering" style="shape=process;whiteSpace=wrap;html=1;fillColor=#f8cecc;" parent="1" vertex="1">
                    <mxGeometry x="290" y="200" width="220" height="60" as="geometry"/>
                </mxCell>
                <mxCell id="11" value="Compliance Filter" style="shape=hexagon;whiteSpace=wrap;html=1;fillColor=#c9daf8;" parent="1" vertex="1">
                    <mxGeometry x="580" y="200" width="140" height="60" as="geometry"/>
                </mxCell>
                <mxCell id="12" value="LLM (GPT-4 / DeepSeek-R1)" style="shape=ellipse;whiteSpace=wrap;html=1;fillColor=#e1f5fe;" parent="1" vertex="1">
                    <mxGeometry x="560" y="320" width="180" height="60" as="geometry"/>
                </mxCell>
                <mxCell id="13" value="API + Output Logging" style="shape=process;whiteSpace=wrap;html=1;fillColor=#eeeeee;" parent="1" vertex="1">
                    <mxGeometry x="560" y="440" width="180" height="60" as="geometry"/>
                </mxCell>
                <mxCell id="14" value="Final Output: Classification + Explanation" style="shape=rectangle;rounded=1;whiteSpace=wrap;html=1;fillColor=#d9ead3;" parent="1" vertex="1">
                    <mxGeometry x="530" y="555" width="240" height="60" as="geometry"/>
                </mxCell>
                <mxCell id="15" value="Legend:&lt;br&gt;1: Sample Ingestion&lt;br&gt;2: Feature Logging&lt;br&gt;3: Extracted Features&lt;br&gt;4: Retriever Query&lt;br&gt;5: Document Retrieval&lt;br&gt;6: Log Retrieval&lt;br&gt;7: Retrieved Docs&lt;br&gt;8:&amp;nbsp;Features Prompt Input Data&lt;br&gt;9: Context Prompt Input Data&lt;br&gt;10: Compliance Check&lt;br&gt;11: LLM Inference&lt;br&gt;12: Log Output&lt;br&gt;13: Final Results" style="shape=note;whiteSpace=wrap;html=1;" parent="1" vertex="1">
                    <mxGeometry x="40" y="555" width="380" height="210" as="geometry"/>
                </mxCell>
                <mxCell id="20" value="1" style="endArrow=block;html=1;" parent="1" source="2" target="3" edge="1">
                    <mxGeometry relative="1" as="geometry"/>
                </mxCell>
                <mxCell id="21" value="2" style="endArrow=block;html=1;" parent="1" source="3" target="4" edge="1">
                    <mxGeometry relative="1" as="geometry"/>
                </mxCell>
                <mxCell id="22" value="3" style="endArrow=block;html=1;" parent="1" source="4" target="5" edge="1">
                    <mxGeometry relative="1" as="geometry">
                        <Array as="points">
                            <mxPoint x="650" y="170"/>
                            <mxPoint x="130" y="170"/>
                        </Array>
                    </mxGeometry>
                </mxCell>
                <mxCell id="23" value="4" style="endArrow=block;html=1;" parent="1" source="5" target="7" edge="1">
                    <mxGeometry relative="1" as="geometry"/>
                </mxCell>
                <mxCell id="24" value="5" style="endArrow=block;html=1;" parent="1" source="6" target="7" edge="1">
                    <mxGeometry relative="1" as="geometry"/>
                </mxCell>
                <mxCell id="25" value="6" style="endArrow=block;html=1;" parent="1" source="7" target="8" edge="1">
                    <mxGeometry relative="1" as="geometry">
                        <Array as="points">
                            <mxPoint x="260" y="350"/>
                            <mxPoint x="260" y="470"/>
                        </Array>
                    </mxGeometry>
                </mxCell>
                <mxCell id="26" value="7" style="endArrow=block;html=1;" parent="1" source="8" target="9" edge="1">
                    <mxGeometry relative="1" as="geometry"/>
                </mxCell>
                <mxCell id="27" value="8" style="endArrow=block;html=1;" parent="1" source="5" target="10" edge="1">
                    <mxGeometry relative="1" as="geometry"/>
                </mxCell>
                <mxCell id="28" value="9" style="endArrow=block;html=1;" parent="1" source="9" target="10" edge="1">
                    <mxGeometry relative="1" as="geometry"/>
                </mxCell>
                <mxCell id="29" value="10" style="endArrow=block;html=1;" parent="1" source="10" target="11" edge="1">
                    <mxGeometry relative="1" as="geometry"/>
                </mxCell>
                <mxCell id="30" value="11" style="endArrow=block;html=1;" parent="1" source="11" target="12" edge="1">
                    <mxGeometry relative="1" as="geometry"/>
                </mxCell>
                <mxCell id="31" value="12" style="endArrow=block;html=1;" parent="1" source="12" target="13" edge="1">
                    <mxGeometry relative="1" as="geometry"/>
                </mxCell>
                <mxCell id="32" value="" style="endArrow=block;html=1;" parent="1" source="13" target="14" edge="1">
                    <mxGeometry relative="1" as="geometry"/>
                </mxCell>
                <mxCell id="33" value="13" style="edgeLabel;html=1;align=center;verticalAlign=middle;resizable=0;points=[];" parent="32" vertex="1" connectable="0">
                    <mxGeometry x="-0.1564" y="2" relative="1" as="geometry">
                        <mxPoint as="offset"/>
                    </mxGeometry>
                </mxCell>
            </root>
        </mxGraphModel>
    </diagram>
</mxfile>